<?xml version="1.0" encoding="UTF-8"?>
<svg id="Livello_2" data-name="Livello 2" xmlns="http://www.w3.org/2000/svg" viewBox="0 0 576.8 139.12">
  <defs>
    <style>
      .cls-1 {
        fill: #fff;
      }
    </style>
  </defs>
  <g id="Livello_1-2" data-name="Livello 1-2">
    <g>
      <path class="cls-1" d="M77.78,2.59H0V136.51H35.03V37.42s25.61-.26,31.67-.26c5.54,0,10.55,1.26,15.05,3.76,4.49,2.51,7.96,6.02,10.38,10.51,2.43,4.51,3.64,9.61,3.64,15.32v69.77h35.04V59.29c0-27.64-21.92-56.7-53.03-56.7Z"/>
      <path class="cls-1" d="M257.26,9.22C246.36,3.08,234.24,0,220.92,0s-25.43,3.08-36.33,9.22c-10.91,6.14-19.52,14.53-25.83,25.18-6.32,10.63-9.47,22.35-9.47,35.15s3.15,24.8,9.47,35.44c6.31,10.64,14.92,18.99,25.83,25.04,10.9,6.06,23,9.09,36.33,9.09s25.44-3.03,36.34-9.09c10.9-6.05,19.5-14.4,25.82-25.04,6.31-10.64,9.47-22.46,9.47-35.44s-3.16-24.52-9.47-35.15c-6.32-10.65-14.92-19.04-25.82-25.18Zm-5.71,79.42c-3.12,5.8-7.36,10.34-12.72,13.62-5.37,3.28-11.34,4.94-17.91,4.94s-12.76-1.66-18.04-4.94-9.47-7.82-12.59-13.62c-3.11-5.8-4.67-12.15-4.67-19.09s1.56-13.22,4.67-18.93c3.12-5.71,7.36-10.21,12.72-13.5,5.36-3.28,11.33-4.94,17.91-4.94s12.76,1.66,18.04,4.94c5.27,3.29,9.47,7.79,12.59,13.5,3.11,5.71,4.67,12.03,4.67,18.93s-1.56,13.29-4.67,19.09h0Z"/>
      <path class="cls-1" d="M295.74,2.82l33.22,122.01c1.91,7.03,8.3,11.91,15.58,11.91h20L332.01,2.82h-36.27Z"/>
      <path class="cls-1" d="M364.55,136.74h20c7.29,0,13.67-4.88,15.58-11.91L433.35,2.82h-36.26l-32.54,133.92Z"/>
      <path class="cls-1" d="M576.8,2.59h-83.18v.02c-.21-.02-.41-.02-.61-.02-10.85,0-20.59,2.98-29.27,8.92-8.69,5.94-15.52,14.08-20.51,24.44-4.99,10.36-7.48,22-7.48,34.89s2.49,21.92,7.48,32.28c4.99,10.35,13.23,18.21,22.09,23.99,11.89,7.75,29.48,9.51,37.52,9.49,1.39,0,3-.04,4.23-.06l34.93-34.93v34.95h34.8v-34.95h-34.8l34.8-34.8V2.59Zm-34.8,99.02h-39.07c-6.19,0-17.56,.04-26.56-14.54-2.75-4.45-4.17-8.92-4.51-16.23-.31-6.77,1.5-13.02,4.51-18.71s5.92-8.7,10.99-11.92c5.07-3.23,11.91-3.58,18.27-3.58h36.37V101.61h0Z"/>
    </g>
  </g>
</svg>